<?xml version="1.0" standalone="no"?>
<!DOCTYPE svg PUBLIC "-//W3C//DTD SVG 20010904//EN"
 "http://www.w3.org/TR/2001/REC-SVG-20010904/DTD/svg10.dtd">
<svg version="1.0" xmlns="http://www.w3.org/2000/svg"
 width="512.000000pt" height="512.000000pt" viewBox="0 0 512.000000 512.000000"
 preserveAspectRatio="xMidYMid meet">

<g transform="translate(0.000000,512.000000) scale(0.100000,-0.100000)"
fill="#ffffff" stroke="none">
<path d="M2501 4352 c-67 -34 -71 -55 -71 -345 0 -287 4 -312 62 -347 66 -40
155 -13 184 55 11 27 14 90 14 292 0 231 -2 262 -18 293 -20 38 -72 70 -112
70 -14 0 -40 -8 -59 -18z"/>
<path d="M1330 3869 c-37 -15 -68 -48 -80 -85 -21 -64 -1 -95 174 -273 88 -90
179 -176 200 -192 126 -93 270 51 177 177 -55 74 -345 353 -383 369 -43 17
-53 18 -88 4z"/>
<path d="M3700 3864 c-39 -17 -373 -344 -396 -386 -18 -35 -18 -91 1 -128 33
-65 126 -80 191 -31 21 16 112 102 201 192 184 187 201 216 167 285 -35 69
-100 97 -164 68z"/>
<path d="M2445 3459 c-425 -55 -752 -408 -772 -836 -14 -277 79 -510 277 -697
118 -111 234 -175 391 -217 114 -30 310 -33 419 -5 168 43 292 110 407 220
202 191 294 422 280 699 -22 436 -349 784 -787 837 -95 11 -116 11 -215 -1z
m250 -264 c257 -54 454 -268 495 -538 48 -322 -183 -644 -508 -707 -87 -17
-241 -8 -320 19 -160 55 -302 179 -372 325 -50 107 -64 171 -63 291 2 238 135
450 348 556 133 66 275 84 420 54z"/>
<path d="M820 2672 c-38 -20 -70 -72 -70 -112 0 -40 32 -92 70 -112 31 -16 62
-18 293 -18 287 0 312 4 347 62 25 42 25 94 0 136 -35 58 -60 62 -347 62 -231
0 -262 -2 -293 -18z"/>
<path d="M3713 2675 c-67 -29 -92 -118 -53 -183 36 -59 60 -63 358 -60 260 3
268 4 299 26 67 48 67 156 0 204 -31 22 -38 23 -302 25 -216 2 -276 0 -302
-12z"/>
<path d="M1624 1801 c-21 -16 -114 -104 -205 -197 -178 -181 -191 -202 -169
-269 12 -36 55 -79 91 -90 11 -4 37 -4 57 0 30 5 67 37 205 173 201 198 227
230 227 284 0 112 -114 167 -206 99z"/>
<path d="M3348 1814 c-63 -34 -77 -126 -29 -190 54 -74 345 -353 385 -369 67
-28 142 9 166 80 22 66 3 94 -189 288 -97 98 -188 185 -203 193 -35 18 -95 17
-130 -2z"/>
<path d="M2492 1460 c-59 -36 -63 -60 -60 -358 3 -260 4 -268 26 -299 14 -20
38 -37 63 -44 54 -17 110 1 141 44 22 31 23 39 26 299 3 298 -1 322 -60 358
-18 11 -49 20 -68 20 -19 0 -50 -9 -68 -20z"/>
</g>
</svg>
