<?xml version="1.0" standalone="no"?>
<!DOCTYPE svg PUBLIC "-//W3C//DTD SVG 20010904//EN"
 "http://www.w3.org/TR/2001/REC-SVG-20010904/DTD/svg10.dtd">
<svg version="1.0" xmlns="http://www.w3.org/2000/svg"
 width="512.000000pt" height="512.000000pt" viewBox="0 0 512.000000 512.000000"
 preserveAspectRatio="xMidYMid meet">

<g transform="translate(0.000000,512.000000) scale(0.100000,-0.100000)"
fill="#ffffff" stroke="none">
<path d="M1667 3949 c-126 -19 -257 -91 -355 -195 -57 -59 -89 -111 -211 -335
-185 -340 -204 -371 -248 -410 -64 -56 -128 -78 -288 -99 -171 -23 -226 -47
-281 -119 -60 -78 -64 -108 -64 -461 0 -253 3 -328 16 -375 30 -119 103 -207
212 -258 l67 -32 196 -3 195 -3 20 -36 c10 -20 44 -61 74 -92 226 -229 605
-190 782 82 l31 47 763 0 762 0 26 -43 c36 -63 136 -151 209 -185 153 -73 311
-69 461 11 68 36 153 116 186 175 l23 40 181 4 c179 3 182 3 248 35 111 52
182 140 214 263 22 88 15 427 -11 510 -60 192 -209 348 -391 409 -33 11 -100
25 -148 31 -145 18 -246 67 -326 157 -22 25 -81 120 -131 212 -50 91 -123 224
-163 295 -108 196 -217 295 -390 354 l-81 27 -760 1 c-418 1 -786 -2 -818 -7z
m1564 -143 c126 -27 245 -106 307 -203 17 -27 92 -160 166 -297 75 -137 154
-274 177 -303 47 -63 130 -131 206 -167 60 -30 190 -66 237 -66 79 0 202 -53
274 -116 l37 -33 -138 -1 c-135 0 -139 -1 -164 -26 -24 -24 -25 -30 -18 -87
12 -108 64 -192 150 -242 52 -31 182 -65 247 -65 l48 0 0 -88 c0 -154 -41
-236 -142 -286 -48 -24 -61 -26 -190 -26 l-139 0 7 49 c15 113 -41 278 -127
375 -56 64 -146 121 -227 146 -71 22 -197 26 -271 9 -73 -16 -171 -71 -226
-124 -106 -103 -154 -216 -155 -362 l0 -93 -715 0 -715 0 0 93 c-1 281 -215
496 -496 497 -155 0 -286 -56 -383 -166 -86 -96 -141 -260 -128 -376 l6 -48
-153 0 c-144 0 -155 1 -204 26 -100 50 -142 133 -142 281 l0 83 133 0 c115 0
136 2 150 18 17 19 107 310 107 347 0 14 -11 32 -26 44 -25 19 -40 21 -196 21
l-168 0 6 28 c11 45 51 90 92 102 20 5 89 17 154 25 64 8 141 23 171 34 73 25
158 82 205 137 20 24 106 171 191 326 85 156 174 311 197 344 67 95 172 164
288 189 92 20 1473 21 1567 1z m-2657 -1373 c-8 -27 -17 -60 -21 -75 l-5 -28
-94 0 -94 0 0 75 0 75 115 0 114 0 -15 -47z m4156 27 c6 -11 14 -43 17 -70 l6
-50 -32 0 c-18 0 -64 7 -102 16 -58 13 -78 23 -115 58 -24 24 -44 48 -44 54 0
9 37 12 130 12 120 0 130 -2 140 -20z m-3217 -244 c73 -35 143 -106 176 -176
23 -48 26 -68 26 -155 0 -88 -3 -106 -27 -155 -37 -75 -100 -137 -178 -174
-58 -28 -75 -31 -155 -31 -72 0 -100 5 -139 23 -313 144 -289 582 37 688 69
23 193 13 260 -20z m2427 2 c108 -49 178 -135 207 -253 65 -263 -187 -502
-452 -430 -163 44 -265 181 -265 353 1 162 99 298 253 348 66 22 190 13 257
-18z"/>
<path d="M1761 3654 c-80 -21 -149 -62 -212 -124 -46 -46 -81 -103 -213 -345
-86 -159 -160 -301 -162 -315 -4 -17 1 -34 14 -50 l20 -25 590 0 c566 0 591 1
611 19 21 19 21 25 21 417 0 397 0 398 -22 419 -21 19 -33 20 -307 19 -217 0
-299 -4 -340 -15z m529 -424 l0 -300 -465 0 -466 0 12 23 c105 201 241 440
267 469 19 21 50 47 69 59 68 42 107 48 351 48 l232 1 0 -300z"/>
<path d="M2545 3646 l-25 -25 0 -389 c0 -369 1 -391 19 -413 l19 -24 579 -3
c575 -2 580 -2 606 18 18 15 27 31 27 51 0 34 -277 552 -339 634 -46 61 -124
116 -206 147 -57 22 -77 23 -357 26 l-298 3 -25 -25z m668 -154 c37 -19 80
-49 98 -70 29 -35 269 -466 269 -484 0 -4 -207 -8 -460 -8 l-460 0 0 301 0
300 243 -3 243 -3 67 -33z"/>
<path d="M1191 2654 c-26 -33 -26 -55 -2 -85 17 -22 29 -24 116 -27 111 -5
152 7 162 47 9 33 5 51 -14 74 -14 14 -34 17 -129 17 -110 0 -113 -1 -133 -26z"/>
<path d="M2540 2658 c-27 -29 -25 -64 5 -93 22 -23 31 -25 120 -25 125 0 155
14 155 76 0 54 -22 64 -148 64 -102 0 -113 -2 -132 -22z"/>
<path d="M1272 2049 c-74 -37 -117 -138 -92 -214 16 -47 66 -104 107 -121 74
-31 169 -4 219 61 37 48 45 141 17 194 -47 90 -160 126 -251 80z m116 -131
c17 -17 15 -53 -3 -68 -20 -17 -62 -5 -70 20 -14 44 41 80 73 48z"/>
<path d="M3715 2055 c-79 -42 -110 -101 -103 -190 12 -149 193 -218 302 -117
35 33 65 97 66 138 0 45 -44 125 -86 153 -46 32 -135 39 -179 16z m109 -141
c9 -8 16 -22 16 -29 0 -7 -7 -21 -16 -29 -30 -30 -74 -13 -74 29 0 42 44 59
74 29z"/>
</g>
</svg>
