<?xml version="1.0" standalone="no"?>
<!DOCTYPE svg PUBLIC "-//W3C//DTD SVG 20010904//EN"
 "http://www.w3.org/TR/2001/REC-SVG-20010904/DTD/svg10.dtd">
<svg version="1.0" xmlns="http://www.w3.org/2000/svg"
 width="315.000000pt" height="160.000000pt" viewBox="0 0 315.000000 160.000000"
 preserveAspectRatio="xMidYMid meet">

<g transform="translate(0.000000,160.000000) scale(0.100000,-0.100000)"
fill="#ffffff" stroke="none">
<path d="M1538 1454 c-153 -17 -340 -55 -401 -82 -25 -11 -52 -31 -61 -44 -9
-14 -26 -76 -39 -139 l-23 -114 -103 -37 c-57 -20 -115 -45 -130 -55 -29 -22
-71 -80 -71 -97 1 -6 10 6 21 27 28 54 91 81 184 80 79 -1 152 -17 178 -40 31
-29 17 -124 -45 -313 -41 -127 -77 -196 -130 -249 -90 -90 -158 -124 -274
-136 l-69 -8 19 22 c18 20 20 20 39 4 17 -16 17 -14 -3 20 -21 35 -22 47 -17
135 3 56 17 146 35 214 21 85 25 115 15 111 -7 -3 -13 0 -13 7 0 6 8 14 18 17
12 3 23 21 31 51 l12 47 -35 32 c-20 18 -41 33 -48 33 -7 0 -3 -7 8 -15 75
-52 35 -175 -56 -175 -32 0 -83 55 -78 83 3 15 -1 23 -11 24 -9 1 -39 5 -67 9
-35 4 -69 1 -109 -11 -101 -29 -205 -156 -205 -251 0 -33 31 -36 142 -14 106
21 193 19 225 -6 16 -12 15 -13 -10 -4 -43 15 -162 12 -251 -7 l-79 -17 6 -79
c7 -99 50 -194 104 -232 l36 -24 -54 -7 c-142 -19 39 -27 721 -31 768 -5 936
1 1005 36 58 29 176 39 580 51 198 6 374 15 390 19 29 9 28 9 -14 10 -37 1
-42 3 -36 18 25 56 45 125 51 170 6 49 8 53 33 53 45 0 55 13 37 48 -8 16 -27
78 -40 136 -31 129 -45 162 -86 209 -43 50 -116 71 -222 65 -43 -3 -78 -1 -78
2 0 16 -81 90 -119 110 -32 16 -45 18 -68 9 -47 -18 -275 -49 -348 -48 l-70 2
94 8 c110 10 257 34 296 49 27 10 27 12 20 67 -20 160 -71 242 -163 262 -73
15 -515 12 -674 -5z m750 -71 c11 -10 23 -29 27 -43 6 -21 4 -20 -14 8 -19 30
-25 32 -78 33 -42 0 -52 3 -38 9 34 14 82 11 103 -7z m-373 -17 c43 -18 55
-42 54 -108 l-2 -53 -6 59 c-7 65 -29 91 -85 102 -18 3 -187 1 -375 -4 -307
-9 -345 -12 -381 -30 -22 -10 -37 -15 -34 -10 24 39 160 51 642 56 112 2 162
-2 187 -12z m-15 -31 c37 -19 44 -47 37 -144 -7 -94 -14 -114 -36 -106 -45 18
-169 36 -304 46 -173 13 -347 1 -473 -32 -42 -11 -79 -18 -81 -15 -3 3 1 46
10 96 15 91 29 119 72 143 23 14 210 22 528 25 178 2 223 -1 247 -13z m384
-10 c17 -18 39 -113 34 -152 -3 -26 -5 -27 -151 -51 -81 -13 -154 -21 -163
-18 -13 5 -14 20 -8 93 3 49 12 94 19 101 14 15 138 40 207 41 29 1 52 -5 62
-14z m43 -37 c-3 -8 -6 -5 -6 6 -1 11 2 17 5 13 3 -3 4 -12 1 -19z m10 -40
c-3 -8 -6 -5 -6 6 -1 11 2 17 5 13 3 -3 4 -12 1 -19z m-838 -123 c-3 -2 -63
-9 -134 -15 -72 -5 -146 -12 -165 -15 l-35 -5 35 11 c44 14 310 35 299 24z
m129 -12 c-15 -2 -42 -2 -60 0 -18 2 -6 4 27 4 33 0 48 -2 33 -4z m880 -61
c17 -13 37 -33 43 -45 8 -16 2 -13 -24 11 -20 20 -52 37 -77 43 -52 12 -192
-2 -370 -36 -130 -26 -512 -68 -558 -63 -15 2 50 11 143 22 190 20 369 46 525
76 145 27 273 24 318 -8z m-57 -122 c-32 -44 -65 -144 -110 -333 -16 -71 -37
-139 -45 -152 -16 -25 -63 -38 -180 -50 -81 -8 -65 4 20 16 118 17 143 26 159
62 9 18 30 100 49 182 37 165 66 250 97 289 33 42 42 30 10 -14z m-973 23
c-10 -2 -28 -2 -40 0 -13 2 -5 4 17 4 22 1 32 -1 23 -4z m-183 -45 c20 -24 26
-40 23 -65 -2 -18 -2 -33 0 -33 2 0 19 12 37 26 58 44 130 65 219 65 45 0 91
-3 103 -8 14 -5 -20 -8 -90 -8 -149 0 -178 -14 -316 -154 -99 -101 -107 -104
-33 -13 27 33 29 39 12 35 -52 -14 -100 33 -106 104 -7 80 97 115 151 51z
m1629 -144 c10 -38 26 -95 36 -126 10 -32 16 -58 14 -58 -10 0 -33 64 -49 135
-9 44 -28 100 -41 125 l-24 45 24 -26 c13 -15 31 -57 40 -95z m-59 81 c14 -13
26 -32 27 -42 1 -20 4 -35 8 -43 13 -26 19 -270 7 -277 -5 -3 -6 -11 -3 -19 7
-19 -22 -99 -44 -119 -28 -26 -53 -15 -77 35 -21 41 -21 48 -9 85 18 52 29
137 15 112 -14 -25 -29 -11 -29 27 0 38 8 50 25 36 10 -8 11 0 4 35 -5 25 -13
54 -18 64 -13 24 2 77 31 108 27 29 33 29 63 -2z m-1062 -102 c14 -16 35 -48
46 -73 20 -47 46 -168 37 -177 -2 -3 -8 12 -11 33 -12 70 -36 148 -57 182 -25
41 -56 59 -72 41 -8 -9 -8 -10 2 -5 7 4 19 2 27 -4 18 -15 20 -34 3 -24 -8 4
-10 3 -5 -2 5 -5 14 -9 20 -9 7 0 11 -8 11 -18 -1 -9 2 -15 6 -12 19 12 45
-91 44 -175 -1 -89 -29 -187 -52 -183 -6 2 -9 -3 -6 -11 3 -7 -3 -19 -12 -27
-15 -12 -17 -12 -9 0 5 10 4 12 -4 7 -6 -4 -9 -11 -6 -16 10 -16 -39 -40 -81
-40 -26 0 -53 8 -75 23 -42 29 -88 115 -96 185 l-6 53 -71 -6 c-48 -5 -95 -1
-144 9 -109 24 -133 21 -189 -20 l-48 -35 42 40 c49 48 73 50 212 26 64 -12
98 -13 147 -5 117 19 122 23 165 141 38 106 59 129 114 129 32 0 47 -6 68 -27z
m954 -35 c-3 -7 -5 -2 -5 12 0 14 2 19 5 13 2 -7 2 -19 0 -25z m-10 -145 c-2
-21 -4 -4 -4 37 0 41 2 58 4 38 2 -21 2 -55 0 -75z m-57 -52 c-21 -80 -37 -89
-205 -116 -82 -14 -163 -24 -180 -24 -26 2 -27 2 -5 6 14 2 92 15 174 29 117
19 155 29 172 45 23 22 42 88 46 157 1 32 2 31 5 -10 2 -26 -1 -65 -7 -87z
m67 -43 c-3 -8 -6 -5 -6 6 -1 11 2 17 5 13 3 -3 4 -12 1 -19z m-2237 -93 c-16
-19 -30 -19 -30 -1 0 8 8 16 18 18 24 6 27 1 12 -17z m-80 -26 c0 -36 -23 -39
-46 -4 -20 30 -12 44 21 37 20 -3 25 -10 25 -33z m1818 14 c-10 -2 -26 -2 -35
0 -10 3 -2 5 17 5 19 0 27 -2 18 -5z m221 -19 c12 -26 11 -27 -20 -20 -17 3
-79 7 -138 7 l-106 1 105 18 c144 24 145 24 159 -6z"/>
<path d="M2806 755 c9 -14 19 -24 21 -21 7 7 -16 46 -28 46 -5 0 -2 -11 7 -25z"/>
<path d="M2822 640 c0 -14 2 -19 5 -12 2 6 2 18 0 25 -3 6 -5 1 -5 -13z"/>
<path d="M2820 531 c0 -21 -5 -51 -10 -68 -7 -18 -7 -39 -2 -53 8 -22 10 -21
26 19 12 31 15 56 10 92 -8 58 -24 65 -24 10z"/>
<path d="M1664 665 c-26 -55 -28 -92 -6 -87 7 1 12 -4 12 -12 0 -23 18 -28 56
-16 32 11 35 15 29 39 -3 14 -18 44 -33 66 -14 22 -25 46 -24 53 6 29 -11 8
-34 -43z"/>
<path d="M1590 505 c0 -17 9 -19 28 -6 11 7 10 10 -3 15 -23 9 -25 8 -25 -9z"/>
<path d="M1561 494 c0 -11 3 -14 6 -6 3 7 2 16 -1 19 -3 4 -6 -2 -5 -13z"/>
<path d="M1520 464 c0 -21 4 -33 10 -29 6 3 10 19 10 36 0 16 -4 29 -10 29 -5
0 -10 -16 -10 -36z"/>
<path d="M1678 452 c-15 -38 -14 -46 17 -131 7 -18 51 44 61 85 4 16 13 38 20
49 22 31 17 35 -34 35 -47 0 -49 -1 -64 -38z"/>
<path d="M1627 459 c-12 -7 -15 -15 -8 -26 9 -16 4 -53 -8 -53 -16 1 -33 19
-27 29 4 6 12 9 17 6 5 -4 9 -1 9 5 0 19 -32 6 -52 -21 -20 -26 -20 -27 0 -65
11 -21 32 -50 48 -64 15 -14 24 -19 20 -12 -6 10 -1 11 18 6 16 -4 32 -1 41 6
21 18 19 27 -7 26 -20 -1 -23 6 -30 58 -4 32 -10 61 -13 64 -3 3 4 12 15 19
11 8 18 19 15 24 -8 11 -15 11 -38 -2z"/>
<path d="M761 933 c-29 -30 -70 -156 -116 -358 -28 -122 -30 -153 -14 -208 12
-45 43 -61 98 -51 95 17 198 100 245 197 39 81 98 294 100 362 1 79 -10 85
-167 85 -116 0 -119 -1 -146 -27z"/>
<path d="M568 923 c6 -2 18 -2 25 0 6 3 1 5 -13 5 -14 0 -19 -2 -12 -5z"/>
<path d="M624 788 l-19 -23 23 19 c21 18 27 26 19 26 -2 0 -12 -10 -23 -22z"/>
<path d="M520 796 c0 -2 8 -10 18 -17 15 -13 16 -12 3 4 -13 16 -21 21 -21 13z"/>
</g>
</svg>
