<?xml version="1.0" standalone="no"?>
<!DOCTYPE svg PUBLIC "-//W3C//DTD SVG 20010904//EN"
 "http://www.w3.org/TR/2001/REC-SVG-20010904/DTD/svg10.dtd">
<svg version="1.0" xmlns="http://www.w3.org/2000/svg"
 width="512.000000pt" height="512.000000pt" viewBox="0 0 512.000000 512.000000"
 preserveAspectRatio="xMidYMid meet">

<g transform="translate(0.000000,512.000000) scale(0.100000,-0.100000)"
fill="#ffffff" stroke="none">
<path d="M467 4579 c-56 -13 -128 -53 -164 -91 -18 -18 -45 -60 -60 -93 l-28
-60 -3 -885 c-2 -628 0 -902 8 -945 20 -105 89 -193 185 -237 43 -20 70 -23
198 -26 l147 -4 0 -278 c0 -179 4 -288 11 -303 13 -28 58 -57 88 -57 31 0 77
26 261 149 l165 111 6 -172 c4 -151 8 -179 27 -218 34 -71 75 -113 144 -151
l63 -34 885 -5 885 -5 469 -314 c526 -351 521 -348 581 -288 l35 35 0 285 0
285 148 4 c179 4 225 20 301 104 91 100 86 31 86 1074 l0 915 -26 55 c-49 103
-113 158 -216 185 -46 12 -133 15 -440 15 l-382 0 -3 358 c-3 348 -4 358 -26
407 -43 93 -131 163 -230 184 -65 14 -3057 14 -3115 0z m3112 -225 c48 -34 51
-60 51 -404 l0 -320 -1020 0 c-702 0 -1036 -3 -1072 -11 -99 -21 -187 -91
-230 -184 l-23 -50 -3 -633 -3 -632 -157 -105 -157 -105 -5 237 c-5 254 -9
270 -57 292 -14 7 -96 11 -199 11 -188 0 -227 8 -258 51 -14 21 -16 107 -16
917 l0 894 29 29 29 29 1534 0 c1402 0 1536 -1 1557 -16z m1082 -973 l29 -29
0 -894 c0 -810 -2 -896 -16 -917 -31 -43 -70 -51 -258 -51 -103 0 -185 -4
-199 -11 -48 -22 -52 -38 -57 -292 l-5 -238 -402 271 -402 270 -882 0 c-977 0
-931 -3 -963 65 -14 29 -16 131 -16 894 0 927 -1 908 51 945 21 15 155 16
1557 16 l1534 0 29 -29z"/>
<path d="M2184 2541 c-89 -54 -47 -191 57 -191 74 0 124 75 95 143 -15 38 -59
67 -98 67 -13 0 -37 -9 -54 -19z"/>
<path d="M2601 2534 c-57 -47 -48 -144 15 -173 98 -44 187 45 143 142 -26 57
-108 74 -158 31z"/>
<path d="M3041 2547 c-32 -19 -50 -54 -51 -100 -1 -104 146 -135 195 -42 22
40 14 93 -19 124 -29 28 -92 36 -125 18z"/>
<path d="M3464 2541 c-89 -54 -47 -191 57 -191 74 0 124 75 95 143 -15 38 -59
67 -98 67 -13 0 -37 -9 -54 -19z"/>
<path d="M3881 2534 c-57 -47 -48 -144 15 -173 98 -44 187 45 143 142 -26 57
-108 74 -158 31z"/>
</g>
</svg>
