<?xml version="1.0" standalone="no"?>
<!DOCTYPE svg PUBLIC "-//W3C//DTD SVG 20010904//EN"
 "http://www.w3.org/TR/2001/REC-SVG-20010904/DTD/svg10.dtd">
<svg version="1.0" xmlns="http://www.w3.org/2000/svg"
 width="512.000000pt" height="512.000000pt" viewBox="0 0 512.000000 512.000000"
 preserveAspectRatio="xMidYMid meet">

<g transform="translate(0.000000,512.000000) scale(0.100000,-0.100000)"
fill="#ffffff" stroke="none">
<path d="M1221 4354 c-45 -32 -51 -67 -51 -306 l0 -223 -49 -18 c-27 -9 -73
-35 -101 -58 -159 -126 -209 -332 -125 -517 43 -94 154 -191 258 -226 16 -5
17 -65 17 -1081 0 -1158 -2 -1122 51 -1159 47 -33 122 -15 151 37 10 17 14
262 18 1111 l5 1088 53 20 c74 28 173 122 212 202 80 165 53 344 -71 480 -46
51 -151 116 -186 116 -10 0 -13 44 -13 225 0 242 -6 277 -51 309 -13 9 -39 16
-59 16 -20 0 -46 -7 -59 -16z m157 -753 c158 -81 146 -316 -20 -385 -134 -56
-288 47 -288 194 0 165 162 266 308 191z"/>
<path d="M2059 4341 l-29 -29 0 -991 c0 -786 -3 -991 -12 -991 -58 -1 -205
-113 -252 -194 -74 -127 -74 -305 0 -432 47 -81 194 -193 252 -194 9 0 12 -77
12 -351 l0 -351 29 -29 c48 -47 130 -37 164 21 15 25 17 69 17 367 l0 339 48
17 c102 38 201 137 243 244 32 82 32 224 0 306 -42 107 -141 206 -243 244
l-48 17 0 979 c0 895 -1 981 -17 1007 -34 58 -116 68 -164 21z m159 -2226
c152 -64 172 -273 34 -369 -57 -40 -149 -48 -208 -18 -165 85 -164 298 1 385
39 21 125 21 173 2z"/>
<path d="M2934 4359 c-11 -6 -28 -23 -37 -39 -15 -25 -17 -83 -17 -584 0 -493
-2 -556 -15 -556 -30 0 -119 -53 -170 -101 -219 -207 -161 -563 114 -690 l71
-34 0 -763 c0 -695 2 -766 17 -792 34 -58 116 -68 164 -21 l29 29 0 774 0 774
66 28 c93 41 165 110 211 204 37 74 38 79 38 187 0 106 -2 113 -34 180 -53
107 -150 191 -263 229 -17 5 -18 41 -18 566 l0 562 -29 29 c-31 31 -84 38
-127 18z m163 -1405 c116 -67 135 -233 39 -329 -69 -69 -157 -83 -245 -39
-134 67 -158 244 -45 342 75 66 166 76 251 26z"/>
<path d="M3781 4354 c-39 -28 -51 -73 -51 -199 0 -101 -2 -116 -17 -121 -104
-35 -215 -132 -258 -226 -84 -185 -34 -391 125 -517 28 -23 74 -49 101 -58
l49 -18 0 -1183 c0 -1274 -2 -1229 51 -1266 30 -21 88 -21 118 0 53 37 51 -8
51 1269 0 984 2 1185 13 1185 35 0 140 65 186 116 124 136 151 314 70 480 -38
80 -137 174 -211 202 l-53 20 -5 128 c-5 133 -13 161 -52 188 -29 21 -87 20
-117 0z m144 -533 c158 -72 167 -296 15 -381 -107 -59 -247 -11 -295 102 -73
176 109 357 280 279z"/>
</g>
</svg>
