<?xml version="1.0" standalone="no"?>
<!DOCTYPE svg PUBLIC "-//W3C//DTD SVG 20010904//EN"
 "http://www.w3.org/TR/2001/REC-SVG-20010904/DTD/svg10.dtd">
<svg version="1.0" xmlns="http://www.w3.org/2000/svg"
 width="512.000000pt" height="512.000000pt" viewBox="0 0 512.000000 512.000000"
 preserveAspectRatio="xMidYMid meet">

<g transform="translate(0.000000,512.000000) scale(0.100000,-0.100000)"
fill="#ffffff" stroke="none">
<path d="M2380 4785 c-117 -20 -211 -51 -328 -110 -548 -276 -768 -946 -491
-1498 50 -99 83 -148 160 -237 119 -139 311 -265 495 -325 436 -143 928 5
1216 365 339 424 327 1023 -30 1437 -244 283 -654 431 -1022 368z m303 -316
c429 -66 730 -472 668 -899 -84 -571 -719 -871 -1208 -570 -280 172 -430 506
-369 822 84 432 478 714 909 647z"/>
<path d="M1895 2229 c-315 -42 -601 -184 -830 -414 -169 -168 -282 -351 -355
-573 -57 -176 -64 -240 -65 -544 0 -264 1 -278 21 -304 11 -15 33 -37 48 -48
l27 -21 1819 0 1819 0 27 21 c15 11 37 33 48 48 20 26 21 40 20 309 0 249 -3
293 -22 379 -65 296 -189 526 -397 733 -204 205 -435 331 -727 397 -89 21
-123 22 -728 24 -349 1 -666 -2 -705 -7z m1318 -324 c274 -41 525 -187 701
-407 164 -205 246 -451 246 -740 l0 -118 -1600 0 -1600 0 0 123 c0 376 145
690 422 911 144 116 339 202 518 231 129 20 1178 20 1313 0z"/>
</g>
</svg>
